<svg width="1222" height="840" viewBox="0 0 1222 840" fill="none" xmlns="http://www.w3.org/2000/svg">
<rect width="1222" height="840" fill="#282F27"/>
<rect width="1222" height="840" fill="url(#paint0_radial_121_244)" fill-opacity="0.3"/>
<g clip-path="url(#clip0_121_244)">
<path d="M671.043 334.556L916.429 0.255371" stroke="#675F7F" stroke-linecap="round" stroke-linejoin="round"/>
<path d="M790.539 334.555L1221.79 138.953" stroke="#675F7F" stroke-linecap="round" stroke-linejoin="round"/>
<path d="M611.294 334.555L610.85 0.254883" stroke="#675F7F" stroke-linecap="round" stroke-linejoin="round"/>
<path d="M1029.52 334.555L1221.79 297.196" stroke="#675F7F" stroke-linecap="round" stroke-linejoin="round"/>
<path d="M1089.27 334.555L1221.79 312.027" stroke="#675F7F" stroke-linecap="round" stroke-linejoin="round"/>
<path d="M910.027 334.555L1221.79 249.736" stroke="#675F7F" stroke-linecap="round" stroke-linejoin="round"/>
<path d="M850.287 334.556L1221.79 208.2" stroke="#675F7F" stroke-linecap="round" stroke-linejoin="round"/>
<path d="M969.775 334.555L1221.79 277.42" stroke="#675F7F" stroke-linecap="round" stroke-linejoin="round"/>
<path d="M193.067 334.556L1.02344 297.258" stroke="#675F7F" stroke-linecap="round" stroke-linejoin="round"/>
<path d="M1149.02 334.556L1221.79 323.56" stroke="#675F7F" stroke-linecap="round" stroke-linejoin="round"/>
<path d="M1208.77 334.556L1221.79 332.786" stroke="#675F7F" stroke-linecap="round" stroke-linejoin="round"/>
<path d="M252.814 334.555L1.02148 277.505" stroke="#675F7F" stroke-linecap="round" stroke-linejoin="round"/>
<path d="M372.309 334.555L1.02148 208.385" stroke="#675F7F" stroke-linecap="round" stroke-linejoin="round"/>
<path d="M551.547 334.556L305.279 0.255371" stroke="#675F7F" stroke-linecap="round" stroke-linejoin="round"/>
<path d="M133.318 334.556L1.02148 312.071" stroke="#675F7F" stroke-linecap="round" stroke-linejoin="round"/>
<path d="M312.562 334.556L1.02148 249.857" stroke="#675F7F" stroke-linecap="round" stroke-linejoin="round"/>
<path d="M432.057 334.555L1.02148 139.286" stroke="#675F7F" stroke-linecap="round" stroke-linejoin="round"/>
<path d="M13.8288 334.556L1.02148 332.814" stroke="#675F7F" stroke-linecap="round" stroke-linejoin="round"/>
<path d="M73.5762 334.556L1.02148 323.596" stroke="#675F7F" stroke-linecap="round" stroke-linejoin="round"/>
<path d="M491.799 334.556L-0.292969 0.255371" stroke="#675F7F" stroke-linecap="round" stroke-linejoin="round"/>
<path d="M730.789 334.555L1222 0.254883" stroke="#675F7F" stroke-linecap="round" stroke-linejoin="round"/>
<path d="M1222 0.254817H-0.292969" stroke="#675F7F" stroke-linecap="round" stroke-linejoin="round"/>
<path d="M1221.79 140.601H1.02148" stroke="#675F7F" stroke-linecap="round" stroke-linejoin="round"/>
<path d="M1221.79 275.026H1.02148" stroke="#675F7F" stroke-linecap="round" stroke-linejoin="round"/>
<path d="M1221.79 229.532H1.02148" stroke="#675F7F" stroke-linecap="round" stroke-linejoin="round"/>
<path d="M1221.79 178.384H1.02148" stroke="#675F7F" stroke-linecap="round" stroke-linejoin="round"/>
<path d="M1221.79 88.5126H1.02148" stroke="#675F7F" stroke-linecap="round" stroke-linejoin="round"/>
<path d="M1221.79 207.048H1.02148" stroke="#675F7F" stroke-linecap="round" stroke-linejoin="round"/>
<path d="M1221.79 247.647H1.02148" stroke="#675F7F" stroke-linecap="round" stroke-linejoin="round"/>
<path d="M1221.79 321.225H1.02148" stroke="#675F7F" stroke-linecap="round" stroke-linejoin="round"/>
<path d="M1221.79 309.608H1.02148" stroke="#675F7F" stroke-linecap="round" stroke-linejoin="round"/>
<path d="M1221.79 302.658H1.02148" stroke="#675F7F" stroke-linecap="round" stroke-linejoin="round"/>
<path d="M1221.79 315.755H1.02148" stroke="#675F7F" stroke-linecap="round" stroke-linejoin="round"/>
<path d="M1221.79 330.553H1.02148" stroke="#675F7F" stroke-linecap="round" stroke-linejoin="round"/>
<path d="M1221.79 326.13H1.02148" stroke="#675F7F" stroke-linecap="round" stroke-linejoin="round"/>
<path d="M1221.79 334.556H1.02148" stroke="#675F7F" stroke-linecap="round" stroke-linejoin="round"/>
<path d="M1221.79 285.623H1.02148" stroke="#675F7F" stroke-linecap="round" stroke-linejoin="round"/>
<path d="M1221.79 262.55H1.02148" stroke="#675F7F" stroke-linecap="round" stroke-linejoin="round"/>
<path d="M1221.79 294.738H1.02148" stroke="#675F7F" stroke-linecap="round" stroke-linejoin="round"/>
<rect x="1" width="1221" height="88" fill="#352749" style="mix-blend-mode:plus-lighter"/>
<rect width="1221" height="53" transform="matrix(1 0 0 -1 1 141)" fill="#1F152F" style="mix-blend-mode:plus-lighter"/>
<rect x="1" y="141" width="1221" height="37" fill="#130E1B" style="mix-blend-mode:plus-lighter"/>
<rect width="1221" height="30" transform="matrix(1 0 0 -1 1 208)" fill="#0C0911" style="mix-blend-mode:plus-lighter"/>
<rect x="1" y="208" width="1221" height="21" fill="#07050A" style="mix-blend-mode:plus-lighter"/>
<rect width="1221" height="18" transform="matrix(1 0 0 -1 1 247)" fill="black" style="mix-blend-mode:plus-lighter"/>
</g>
<g clip-path="url(#clip1_121_244)">
<path d="M671.043 505.444L916.429 839.745" stroke="#675F7F" stroke-linecap="round" stroke-linejoin="round"/>
<path d="M790.539 505.445L1221.79 701.047" stroke="#675F7F" stroke-linecap="round" stroke-linejoin="round"/>
<path d="M611.294 505.445L610.85 839.745" stroke="#675F7F" stroke-linecap="round" stroke-linejoin="round"/>
<path d="M1029.52 505.445L1221.79 542.804" stroke="#675F7F" stroke-linecap="round" stroke-linejoin="round"/>
<path d="M1089.27 505.445L1221.79 527.973" stroke="#675F7F" stroke-linecap="round" stroke-linejoin="round"/>
<path d="M910.027 505.445L1221.79 590.264" stroke="#675F7F" stroke-linecap="round" stroke-linejoin="round"/>
<path d="M850.287 505.444L1221.79 631.8" stroke="#675F7F" stroke-linecap="round" stroke-linejoin="round"/>
<path d="M969.775 505.445L1221.79 562.58" stroke="#675F7F" stroke-linecap="round" stroke-linejoin="round"/>
<path d="M193.067 505.444L1.02344 542.742" stroke="#675F7F" stroke-linecap="round" stroke-linejoin="round"/>
<path d="M1149.02 505.444L1221.79 516.44" stroke="#675F7F" stroke-linecap="round" stroke-linejoin="round"/>
<path d="M1208.77 505.444L1221.79 507.214" stroke="#675F7F" stroke-linecap="round" stroke-linejoin="round"/>
<path d="M252.814 505.445L1.02148 562.495" stroke="#675F7F" stroke-linecap="round" stroke-linejoin="round"/>
<path d="M372.309 505.445L1.02148 631.615" stroke="#675F7F" stroke-linecap="round" stroke-linejoin="round"/>
<path d="M551.547 505.444L305.279 839.745" stroke="#675F7F" stroke-linecap="round" stroke-linejoin="round"/>
<path d="M133.318 505.444L1.02148 527.929" stroke="#675F7F" stroke-linecap="round" stroke-linejoin="round"/>
<path d="M312.562 505.444L1.02148 590.143" stroke="#675F7F" stroke-linecap="round" stroke-linejoin="round"/>
<path d="M432.057 505.445L1.02148 700.714" stroke="#675F7F" stroke-linecap="round" stroke-linejoin="round"/>
<path d="M13.8288 505.444L1.02148 507.186" stroke="#675F7F" stroke-linecap="round" stroke-linejoin="round"/>
<path d="M73.5762 505.444L1.02148 516.404" stroke="#675F7F" stroke-linecap="round" stroke-linejoin="round"/>
<path d="M491.799 505.444L-0.292969 839.745" stroke="#675F7F" stroke-linecap="round" stroke-linejoin="round"/>
<path d="M730.789 505.445L1222 839.745" stroke="#675F7F" stroke-linecap="round" stroke-linejoin="round"/>
<path d="M1222 839.745H-0.292969" stroke="#675F7F" stroke-linecap="round" stroke-linejoin="round"/>
<path d="M1221.79 699.399H1.02148" stroke="#675F7F" stroke-linecap="round" stroke-linejoin="round"/>
<path d="M1221.79 564.974H1.02148" stroke="#675F7F" stroke-linecap="round" stroke-linejoin="round"/>
<path d="M1221.79 610.468H1.02148" stroke="#675F7F" stroke-linecap="round" stroke-linejoin="round"/>
<path d="M1221.79 661.616H1.02148" stroke="#675F7F" stroke-linecap="round" stroke-linejoin="round"/>
<path d="M1221.79 751.487H1.02148" stroke="#675F7F" stroke-linecap="round" stroke-linejoin="round"/>
<path d="M1221.79 632.952H1.02148" stroke="#675F7F" stroke-linecap="round" stroke-linejoin="round"/>
<path d="M1221.79 592.353H1.02148" stroke="#675F7F" stroke-linecap="round" stroke-linejoin="round"/>
<path d="M1221.79 518.775H1.02148" stroke="#675F7F" stroke-linecap="round" stroke-linejoin="round"/>
<path d="M1221.79 530.392H1.02148" stroke="#675F7F" stroke-linecap="round" stroke-linejoin="round"/>
<path d="M1221.79 537.342H1.02148" stroke="#675F7F" stroke-linecap="round" stroke-linejoin="round"/>
<path d="M1221.79 524.245H1.02148" stroke="#675F7F" stroke-linecap="round" stroke-linejoin="round"/>
<path d="M1221.79 509.447H1.02148" stroke="#675F7F" stroke-linecap="round" stroke-linejoin="round"/>
<path d="M1221.79 513.87H1.02148" stroke="#675F7F" stroke-linecap="round" stroke-linejoin="round"/>
<path d="M1221.79 505.444H1.02148" stroke="#675F7F" stroke-linecap="round" stroke-linejoin="round"/>
<path d="M1221.79 554.377H1.02148" stroke="#675F7F" stroke-linecap="round" stroke-linejoin="round"/>
<path d="M1221.79 577.45H1.02148" stroke="#675F7F" stroke-linecap="round" stroke-linejoin="round"/>
<path d="M1221.79 545.262H1.02148" stroke="#675F7F" stroke-linecap="round" stroke-linejoin="round"/>
<rect width="1221" height="88" transform="matrix(1 0 0 -1 1 840)" fill="#352749" style="mix-blend-mode:plus-lighter"/>
<rect x="1" y="699" width="1221" height="53" fill="#1F152F" style="mix-blend-mode:plus-lighter"/>
<rect width="1221" height="37" transform="matrix(1 0 0 -1 1 699)" fill="#130E1B" style="mix-blend-mode:plus-lighter"/>
<rect x="1" y="632" width="1221" height="30" fill="#0C0911" style="mix-blend-mode:plus-lighter"/>
<rect width="1221" height="21" transform="matrix(1 0 0 -1 1 632)" fill="#07050A" style="mix-blend-mode:plus-lighter"/>
<rect x="1" y="593" width="1221" height="18" fill="black" style="mix-blend-mode:plus-lighter"/>
</g>
<defs>
<radialGradient id="paint0_radial_121_244" cx="0" cy="0" r="1" gradientUnits="userSpaceOnUse" gradientTransform="translate(611 420) rotate(90) scale(420 611)">
<stop stop-opacity="0"/>
<stop offset="1"/>
</radialGradient>
<clipPath id="clip0_121_244">
<rect width="1222" height="335" fill="white"/>
</clipPath>
<clipPath id="clip1_121_244">
<rect width="1222" height="335" fill="white" transform="matrix(1 0 0 -1 0 840)"/>
</clipPath>
</defs>
</svg>
