<svg width="1220" height="840" viewBox="0 0 1220 840" fill="none" xmlns="http://www.w3.org/2000/svg">
<g clip-path="url(#clip0_121_245)">
<rect width="1220" height="840" fill="#282F27"/>
<rect width="1220" height="840" fill="url(#paint0_radial_121_245)" fill-opacity="0.3"/>
<g clip-path="url(#clip1_121_245)">
<path d="M293.556 482.042L-40.7442 727.428" stroke="#675F7F" stroke-linecap="round" stroke-linejoin="round"/>
<path d="M293.556 601.539L97.9531 1032.79" stroke="#675F7F" stroke-linecap="round" stroke-linejoin="round"/>
<path d="M293.556 422.294L-40.7441 421.85" stroke="#675F7F" stroke-linecap="round" stroke-linejoin="round"/>
<path d="M293.555 840.524L256.195 1032.79" stroke="#675F7F" stroke-linecap="round" stroke-linejoin="round"/>
<path d="M293.556 721.027L208.736 1032.79" stroke="#675F7F" stroke-linecap="round" stroke-linejoin="round"/>
<path d="M293.555 661.287L167.199 1032.79" stroke="#675F7F" stroke-linecap="round" stroke-linejoin="round"/>
<path d="M293.555 780.775L236.42 1032.79" stroke="#675F7F" stroke-linecap="round" stroke-linejoin="round"/>
<path d="M293.556 4.0662L256.258 -187.978" stroke="#675F7F" stroke-linecap="round" stroke-linejoin="round"/>
<path d="M293.556 63.8145L236.506 -187.979" stroke="#675F7F" stroke-linecap="round" stroke-linejoin="round"/>
<path d="M293.555 183.309L167.385 -187.979" stroke="#675F7F" stroke-linecap="round" stroke-linejoin="round"/>
<path d="M293.556 362.547L-40.7441 116.279" stroke="#675F7F" stroke-linecap="round" stroke-linejoin="round"/>
<path d="M293.556 123.562L208.857 -187.979" stroke="#675F7F" stroke-linecap="round" stroke-linejoin="round"/>
<path d="M293.556 243.057L98.2871 -187.979" stroke="#675F7F" stroke-linecap="round" stroke-linejoin="round"/>
<path d="M293.554 302.799L-40.7461 -189.293" stroke="#675F7F" stroke-linecap="round" stroke-linejoin="round"/>
<path d="M293.556 541.79L-40.7442 1033" stroke="#675F7F" stroke-linecap="round" stroke-linejoin="round"/>
<path d="M99.6005 1032.79L99.6005 -187.979" stroke="#675F7F" stroke-linecap="round" stroke-linejoin="round"/>
<path d="M234.026 1032.79L234.026 -187.979" stroke="#675F7F" stroke-linecap="round" stroke-linejoin="round"/>
<path d="M188.532 1032.79L188.532 -187.979" stroke="#675F7F" stroke-linecap="round" stroke-linejoin="round"/>
<path d="M137.384 1032.79L137.384 -187.979" stroke="#675F7F" stroke-linecap="round" stroke-linejoin="round"/>
<path d="M47.5126 1032.79L47.5126 -187.979" stroke="#675F7F" stroke-linecap="round" stroke-linejoin="round"/>
<path d="M166.048 1032.79L166.048 -187.979" stroke="#675F7F" stroke-linecap="round" stroke-linejoin="round"/>
<path d="M206.647 1032.79L206.647 -187.979" stroke="#675F7F" stroke-linecap="round" stroke-linejoin="round"/>
<path d="M280.225 1032.79L280.226 -187.979" stroke="#675F7F" stroke-linecap="round" stroke-linejoin="round"/>
<path d="M268.606 1032.79L268.606 -187.979" stroke="#675F7F" stroke-linecap="round" stroke-linejoin="round"/>
<path d="M261.659 1032.79L261.659 -187.979" stroke="#675F7F" stroke-linecap="round" stroke-linejoin="round"/>
<path d="M274.755 1032.79L274.755 -187.979" stroke="#675F7F" stroke-linecap="round" stroke-linejoin="round"/>
<path d="M289.552 1032.79L289.552 -187.979" stroke="#675F7F" stroke-linecap="round" stroke-linejoin="round"/>
<path d="M285.13 1032.79L285.13 -187.979" stroke="#675F7F" stroke-linecap="round" stroke-linejoin="round"/>
<path d="M293.556 1032.79L293.556 -187.979" stroke="#675F7F" stroke-linecap="round" stroke-linejoin="round"/>
<path d="M244.622 1032.79L244.622 -187.979" stroke="#675F7F" stroke-linecap="round" stroke-linejoin="round"/>
<path d="M221.55 1032.79L221.55 -187.979" stroke="#675F7F" stroke-linecap="round" stroke-linejoin="round"/>
<path d="M253.737 1032.79L253.737 -187.979" stroke="#675F7F" stroke-linecap="round" stroke-linejoin="round"/>
<rect width="1221" height="88" transform="matrix(-4.37114e-08 1 1 4.37114e-08 -41 -188)" fill="#352749" style="mix-blend-mode:plus-lighter"/>
<rect x="100" y="-188" width="1221" height="53" transform="rotate(90 100 -188)" fill="#1F152F" style="mix-blend-mode:plus-lighter"/>
<rect width="1221" height="37" transform="matrix(-4.37114e-08 1 1 4.37114e-08 100 -188)" fill="#130E1B" style="mix-blend-mode:plus-lighter"/>
<rect x="167" y="-188" width="1221" height="30" transform="rotate(90 167 -188)" fill="#0C0911" style="mix-blend-mode:plus-lighter"/>
<rect width="1221" height="21" transform="matrix(-4.37114e-08 1 1 4.37114e-08 167 -188)" fill="#07050A" style="mix-blend-mode:plus-lighter"/>
<rect x="206" y="-188" width="1221" height="18" transform="rotate(90 206 -188)" fill="black" style="mix-blend-mode:plus-lighter"/>
</g>
<g clip-path="url(#clip2_121_245)">
<path d="M928.444 482.042L1262.74 727.428" stroke="#675F7F" stroke-linecap="round" stroke-linejoin="round"/>
<path d="M928.444 601.539L1124.05 1032.79" stroke="#675F7F" stroke-linecap="round" stroke-linejoin="round"/>
<path d="M928.444 422.294L1262.74 421.85" stroke="#675F7F" stroke-linecap="round" stroke-linejoin="round"/>
<path d="M928.443 840.524L965.803 1032.79" stroke="#675F7F" stroke-linecap="round" stroke-linejoin="round"/>
<path d="M928.444 721.027L1013.26 1032.79" stroke="#675F7F" stroke-linecap="round" stroke-linejoin="round"/>
<path d="M928.445 661.287L1054.8 1032.79" stroke="#675F7F" stroke-linecap="round" stroke-linejoin="round"/>
<path d="M928.445 780.775L985.58 1032.79" stroke="#675F7F" stroke-linecap="round" stroke-linejoin="round"/>
<path d="M928.444 4.0662L965.742 -187.978" stroke="#675F7F" stroke-linecap="round" stroke-linejoin="round"/>
<path d="M928.444 63.8145L985.494 -187.979" stroke="#675F7F" stroke-linecap="round" stroke-linejoin="round"/>
<path d="M928.443 183.309L1054.61 -187.979" stroke="#675F7F" stroke-linecap="round" stroke-linejoin="round"/>
<path d="M928.444 362.547L1262.74 116.279" stroke="#675F7F" stroke-linecap="round" stroke-linejoin="round"/>
<path d="M928.444 123.562L1013.14 -187.979" stroke="#675F7F" stroke-linecap="round" stroke-linejoin="round"/>
<path d="M928.444 243.057L1123.71 -187.979" stroke="#675F7F" stroke-linecap="round" stroke-linejoin="round"/>
<path d="M928.444 302.799L1262.74 -189.293" stroke="#675F7F" stroke-linecap="round" stroke-linejoin="round"/>
<path d="M928.444 541.79L1262.74 1033" stroke="#675F7F" stroke-linecap="round" stroke-linejoin="round"/>
<path d="M1122.4 1032.79L1122.4 -187.979" stroke="#675F7F" stroke-linecap="round" stroke-linejoin="round"/>
<path d="M987.974 1032.79L987.974 -187.979" stroke="#675F7F" stroke-linecap="round" stroke-linejoin="round"/>
<path d="M1033.47 1032.79L1033.47 -187.979" stroke="#675F7F" stroke-linecap="round" stroke-linejoin="round"/>
<path d="M1084.62 1032.79L1084.62 -187.979" stroke="#675F7F" stroke-linecap="round" stroke-linejoin="round"/>
<path d="M1174.49 1032.79L1174.49 -187.979" stroke="#675F7F" stroke-linecap="round" stroke-linejoin="round"/>
<path d="M1055.95 1032.79L1055.95 -187.979" stroke="#675F7F" stroke-linecap="round" stroke-linejoin="round"/>
<path d="M1015.35 1032.79L1015.35 -187.979" stroke="#675F7F" stroke-linecap="round" stroke-linejoin="round"/>
<path d="M941.774 1032.79L941.774 -187.979" stroke="#675F7F" stroke-linecap="round" stroke-linejoin="round"/>
<path d="M953.392 1032.79L953.392 -187.979" stroke="#675F7F" stroke-linecap="round" stroke-linejoin="round"/>
<path d="M960.341 1032.79L960.341 -187.979" stroke="#675F7F" stroke-linecap="round" stroke-linejoin="round"/>
<path d="M947.245 1032.79L947.245 -187.979" stroke="#675F7F" stroke-linecap="round" stroke-linejoin="round"/>
<path d="M932.448 1032.79L932.448 -187.979" stroke="#675F7F" stroke-linecap="round" stroke-linejoin="round"/>
<path d="M936.868 1032.79L936.868 -187.979" stroke="#675F7F" stroke-linecap="round" stroke-linejoin="round"/>
<path d="M928.444 1032.79L928.444 -187.979" stroke="#675F7F" stroke-linecap="round" stroke-linejoin="round"/>
<path d="M977.376 1032.79L977.376 -187.979" stroke="#675F7F" stroke-linecap="round" stroke-linejoin="round"/>
<path d="M1000.45 1032.79L1000.45 -187.979" stroke="#675F7F" stroke-linecap="round" stroke-linejoin="round"/>
<path d="M968.261 1032.79L968.261 -187.979" stroke="#675F7F" stroke-linecap="round" stroke-linejoin="round"/>
<rect x="1263" y="-188" width="1221" height="88" transform="rotate(90 1263 -188)" fill="#352749" style="mix-blend-mode:plus-lighter"/>
<rect width="1221" height="53" transform="matrix(-4.37114e-08 1 1 4.37114e-08 1122 -188)" fill="#1F152F" style="mix-blend-mode:plus-lighter"/>
<rect x="1122" y="-188" width="1221" height="37" transform="rotate(90 1122 -188)" fill="#130E1B" style="mix-blend-mode:plus-lighter"/>
<rect width="1221" height="30" transform="matrix(-4.37114e-08 1 1 4.37114e-08 1055 -188)" fill="#0C0911" style="mix-blend-mode:plus-lighter"/>
<rect x="1055" y="-188" width="1221" height="21" transform="rotate(90 1055 -188)" fill="#07050A" style="mix-blend-mode:plus-lighter"/>
<rect width="1221" height="18" transform="matrix(-4.37114e-08 1 1 4.37114e-08 1016 -188)" fill="black" style="mix-blend-mode:plus-lighter"/>
</g>
</g>
<defs>
<radialGradient id="paint0_radial_121_245" cx="0" cy="0" r="1" gradientUnits="userSpaceOnUse" gradientTransform="translate(610 420) rotate(90) scale(420 610)">
<stop stop-opacity="0"/>
<stop offset="1"/>
</radialGradient>
<clipPath id="clip0_121_245">
<rect width="1220" height="840" fill="white"/>
</clipPath>
<clipPath id="clip1_121_245">
<rect width="1222" height="335" fill="white" transform="matrix(-4.37114e-08 1 1 4.37114e-08 -41 -189)"/>
</clipPath>
<clipPath id="clip2_121_245">
<rect width="1222" height="335" fill="white" transform="translate(1263 -189) rotate(90)"/>
</clipPath>
</defs>
</svg>
